<svg width="32px" height="39px" viewBox="0 0 32 39" version="1.1" xmlns="http://www.w3.org/2000/svg" xmlns:xlink="http://www.w3.org/1999/xlink">
    <title>AIBeatz</title>
    <g id="Page-1" stroke="none" stroke-width="1" fill="none" fill-rule="evenodd">
        <g id="logo" fill-rule="nonzero">
            <path
            id="logo-left"
            d="M15,22.4 L15,13.4 L15,11.9 L15,3.8 L2.5,3.8 C1.1,3.8 0,4.9 0,6.3 L0,32.9 C0,34.3 1.1,35.4 2.5,35.4 L15,35.4 L15,22.4 Z"
            fill="#15ee90">
            </path>
            <path
            id="logo-middle"
            d="M21,0.1 C19,0.1 17.3,1.8 17.3,3.8 L17.3,13.8 L17.3,15 L17.3,21.8 L17.3,39 L17.6,39 C19.6,39 21.3,37.3 21.3,35.3 L21.3,25.3 L21.3,24.1 L21.3,17.3 L21.3,0.1 L21,0.1 Z"
            fill="#FFF">
            </path>
            <path
            id="logo-right"
            d="M29.1,3.8 L23.7,3.8 L23.7,16.7 L23.7,25.7 L23.7,27.2 L23.7,35.3 L29.1,35.3 C30.5,35.3 31.6,34.2 31.6,32.8 L31.6,6.3 C31.6,4.9 30.5,3.8 29.1,3.8 Z"
            fill="#f77dc0">
            </path>
        </g>
    </g>
</svg>
